<mxfile host="app.diagrams.net" modified="2023-12-07T13:32:49.553Z" agent="Mozilla/5.0 (Windows NT 10.0; Win64; x64) AppleWebKit/537.36 (KHTML, like Gecko) Chrome/119.0.0.0 Safari/537.36 Edg/119.0.0.0" etag="e8ki1yzS28Slza5TVKC1" version="22.1.7" type="device">
  <diagram name="Страница — 1" id="rl9vS1ZTlhhw8f5Q3Kfo">
    <mxGraphModel dx="1295" dy="721" grid="1" gridSize="10" guides="1" tooltips="1" connect="1" arrows="1" fold="1" page="1" pageScale="1" pageWidth="827" pageHeight="1169" math="0" shadow="0">
      <root>
        <mxCell id="0" />
        <mxCell id="1" parent="0" />
        <mxCell id="mmr0TZ-ZkrYY7pFSIxyF-3" value="" style="edgeStyle=orthogonalEdgeStyle;rounded=0;orthogonalLoop=1;jettySize=auto;html=1;endArrow=none;endFill=0;" edge="1" parent="1" source="mmr0TZ-ZkrYY7pFSIxyF-1">
          <mxGeometry relative="1" as="geometry">
            <mxPoint x="400" y="150.0000000000001" as="targetPoint" />
          </mxGeometry>
        </mxCell>
        <mxCell id="mmr0TZ-ZkrYY7pFSIxyF-1" value="начало" style="rounded=1;whiteSpace=wrap;html=1;" vertex="1" parent="1">
          <mxGeometry x="340" y="60" width="120" height="60" as="geometry" />
        </mxCell>
        <mxCell id="mmr0TZ-ZkrYY7pFSIxyF-4" value="" style="endArrow=none;html=1;rounded=0;" edge="1" parent="1">
          <mxGeometry width="50" height="50" relative="1" as="geometry">
            <mxPoint x="460" y="90" as="sourcePoint" />
            <mxPoint x="520" y="90" as="targetPoint" />
          </mxGeometry>
        </mxCell>
        <mxCell id="mmr0TZ-ZkrYY7pFSIxyF-5" value="" style="endArrow=none;html=1;rounded=0;" edge="1" parent="1">
          <mxGeometry width="50" height="50" relative="1" as="geometry">
            <mxPoint x="520" y="120" as="sourcePoint" />
            <mxPoint x="520" y="60" as="targetPoint" />
          </mxGeometry>
        </mxCell>
        <mxCell id="mmr0TZ-ZkrYY7pFSIxyF-6" value="" style="endArrow=none;html=1;rounded=0;" edge="1" parent="1">
          <mxGeometry width="50" height="50" relative="1" as="geometry">
            <mxPoint x="520" y="60" as="sourcePoint" />
            <mxPoint x="560" y="60" as="targetPoint" />
          </mxGeometry>
        </mxCell>
        <mxCell id="mmr0TZ-ZkrYY7pFSIxyF-7" value="" style="endArrow=none;html=1;rounded=0;" edge="1" parent="1">
          <mxGeometry width="50" height="50" relative="1" as="geometry">
            <mxPoint x="520" y="120" as="sourcePoint" />
            <mxPoint x="560" y="120" as="targetPoint" />
          </mxGeometry>
        </mxCell>
        <mxCell id="mmr0TZ-ZkrYY7pFSIxyF-8" value="компаратор&lt;br&gt;указатель на указатель корня" style="text;html=1;strokeColor=none;fillColor=none;align=left;verticalAlign=middle;whiteSpace=wrap;rounded=0;" vertex="1" parent="1">
          <mxGeometry x="530" y="75" width="240" height="30" as="geometry" />
        </mxCell>
        <mxCell id="mmr0TZ-ZkrYY7pFSIxyF-17" style="edgeStyle=orthogonalEdgeStyle;rounded=0;orthogonalLoop=1;jettySize=auto;html=1;entryX=0.5;entryY=0;entryDx=0;entryDy=0;endArrow=none;endFill=0;" edge="1" parent="1" source="mmr0TZ-ZkrYY7pFSIxyF-9" target="mmr0TZ-ZkrYY7pFSIxyF-16">
          <mxGeometry relative="1" as="geometry" />
        </mxCell>
        <mxCell id="mmr0TZ-ZkrYY7pFSIxyF-9" value="корень или его ребёнок отсутсвует" style="rhombus;whiteSpace=wrap;html=1;" vertex="1" parent="1">
          <mxGeometry x="340" y="150" width="120" height="60" as="geometry" />
        </mxCell>
        <mxCell id="mmr0TZ-ZkrYY7pFSIxyF-10" value="" style="endArrow=none;html=1;rounded=0;exitX=1;exitY=0.5;exitDx=0;exitDy=0;" edge="1" parent="1" source="mmr0TZ-ZkrYY7pFSIxyF-9">
          <mxGeometry width="50" height="50" relative="1" as="geometry">
            <mxPoint x="490" y="240" as="sourcePoint" />
            <mxPoint x="520" y="180" as="targetPoint" />
          </mxGeometry>
        </mxCell>
        <mxCell id="mmr0TZ-ZkrYY7pFSIxyF-12" value="конец" style="rounded=1;whiteSpace=wrap;html=1;" vertex="1" parent="1">
          <mxGeometry x="520" y="150" width="120" height="60" as="geometry" />
        </mxCell>
        <mxCell id="mmr0TZ-ZkrYY7pFSIxyF-23" value="" style="edgeStyle=orthogonalEdgeStyle;rounded=0;orthogonalLoop=1;jettySize=auto;html=1;endArrow=none;endFill=0;" edge="1" parent="1" source="mmr0TZ-ZkrYY7pFSIxyF-13" target="mmr0TZ-ZkrYY7pFSIxyF-20">
          <mxGeometry relative="1" as="geometry" />
        </mxCell>
        <mxCell id="mmr0TZ-ZkrYY7pFSIxyF-13" value="цикл A: пока ptr не равен 0" style="shape=loopLimit;whiteSpace=wrap;html=1;" vertex="1" parent="1">
          <mxGeometry x="340" y="320" width="120" height="60" as="geometry" />
        </mxCell>
        <mxCell id="mmr0TZ-ZkrYY7pFSIxyF-18" style="edgeStyle=orthogonalEdgeStyle;rounded=0;orthogonalLoop=1;jettySize=auto;html=1;entryX=0.5;entryY=0;entryDx=0;entryDy=0;endArrow=none;endFill=0;" edge="1" parent="1" source="mmr0TZ-ZkrYY7pFSIxyF-16" target="mmr0TZ-ZkrYY7pFSIxyF-13">
          <mxGeometry relative="1" as="geometry" />
        </mxCell>
        <mxCell id="mmr0TZ-ZkrYY7pFSIxyF-16" value="&lt;font style=&quot;font-size: 10px;&quot;&gt;a равен указателю на корень&lt;br&gt;b равен a&lt;br&gt;ptr равен&amp;nbsp; указателю на ребёнка корня&lt;/font&gt;" style="rounded=0;whiteSpace=wrap;html=1;align=left;" vertex="1" parent="1">
          <mxGeometry x="340" y="230" width="190" height="60" as="geometry" />
        </mxCell>
        <mxCell id="mmr0TZ-ZkrYY7pFSIxyF-26" value="" style="edgeStyle=orthogonalEdgeStyle;rounded=0;orthogonalLoop=1;jettySize=auto;html=1;endArrow=none;endFill=0;" edge="1" parent="1" source="mmr0TZ-ZkrYY7pFSIxyF-19" target="mmr0TZ-ZkrYY7pFSIxyF-22">
          <mxGeometry relative="1" as="geometry" />
        </mxCell>
        <mxCell id="mmr0TZ-ZkrYY7pFSIxyF-19" value="&lt;font style=&quot;font-size: 10px;&quot;&gt;b равен указатель на ребёнка b&lt;br&gt;ptr равен указатель на ребёнка ptr&lt;/font&gt;" style="rounded=0;whiteSpace=wrap;html=1;align=left;" vertex="1" parent="1">
          <mxGeometry x="340" y="560" width="170" height="60" as="geometry" />
        </mxCell>
        <mxCell id="mmr0TZ-ZkrYY7pFSIxyF-24" value="" style="edgeStyle=orthogonalEdgeStyle;rounded=0;orthogonalLoop=1;jettySize=auto;html=1;endArrow=none;endFill=0;" edge="1" parent="1" source="mmr0TZ-ZkrYY7pFSIxyF-20" target="mmr0TZ-ZkrYY7pFSIxyF-21">
          <mxGeometry relative="1" as="geometry" />
        </mxCell>
        <mxCell id="mmr0TZ-ZkrYY7pFSIxyF-20" value="ptr равен указатель на ребёнка ptr" style="rounded=0;whiteSpace=wrap;html=1;" vertex="1" parent="1">
          <mxGeometry x="340" y="410" width="120" height="60" as="geometry" />
        </mxCell>
        <mxCell id="mmr0TZ-ZkrYY7pFSIxyF-25" value="" style="edgeStyle=orthogonalEdgeStyle;rounded=0;orthogonalLoop=1;jettySize=auto;html=1;endArrow=none;endFill=0;" edge="1" parent="1" source="mmr0TZ-ZkrYY7pFSIxyF-21" target="mmr0TZ-ZkrYY7pFSIxyF-19">
          <mxGeometry relative="1" as="geometry" />
        </mxCell>
        <mxCell id="mmr0TZ-ZkrYY7pFSIxyF-27" style="edgeStyle=orthogonalEdgeStyle;rounded=0;orthogonalLoop=1;jettySize=auto;html=1;entryX=1;entryY=0.5;entryDx=0;entryDy=0;exitX=1;exitY=0.5;exitDx=0;exitDy=0;" edge="1" parent="1" source="mmr0TZ-ZkrYY7pFSIxyF-21" target="mmr0TZ-ZkrYY7pFSIxyF-13">
          <mxGeometry relative="1" as="geometry">
            <Array as="points">
              <mxPoint x="530" y="510" />
              <mxPoint x="530" y="350" />
            </Array>
          </mxGeometry>
        </mxCell>
        <mxCell id="mmr0TZ-ZkrYY7pFSIxyF-21" value="ptr не равен 0" style="rhombus;whiteSpace=wrap;html=1;" vertex="1" parent="1">
          <mxGeometry x="340" y="480" width="120" height="60" as="geometry" />
        </mxCell>
        <mxCell id="mmr0TZ-ZkrYY7pFSIxyF-37" value="" style="edgeStyle=orthogonalEdgeStyle;rounded=0;orthogonalLoop=1;jettySize=auto;html=1;endArrow=none;endFill=0;" edge="1" parent="1" source="mmr0TZ-ZkrYY7pFSIxyF-22" target="mmr0TZ-ZkrYY7pFSIxyF-32">
          <mxGeometry relative="1" as="geometry" />
        </mxCell>
        <mxCell id="mmr0TZ-ZkrYY7pFSIxyF-22" value="конец цикла A" style="shape=loopLimit;whiteSpace=wrap;html=1;flipV=1;" vertex="1" parent="1">
          <mxGeometry x="340" y="635" width="120" height="60" as="geometry" />
        </mxCell>
        <mxCell id="mmr0TZ-ZkrYY7pFSIxyF-41" style="edgeStyle=orthogonalEdgeStyle;rounded=0;orthogonalLoop=1;jettySize=auto;html=1;entryX=0.5;entryY=0;entryDx=0;entryDy=0;endArrow=none;endFill=0;" edge="1" parent="1" source="mmr0TZ-ZkrYY7pFSIxyF-28" target="mmr0TZ-ZkrYY7pFSIxyF-31">
          <mxGeometry relative="1" as="geometry" />
        </mxCell>
        <mxCell id="mmr0TZ-ZkrYY7pFSIxyF-28" value="&lt;font style=&quot;font-size: 10px;&quot;&gt;sort(a, компаратор)&lt;br&gt;sort(b, компаратор)&lt;br&gt;&lt;/font&gt;" style="shape=process;whiteSpace=wrap;html=1;backgroundOutline=1;" vertex="1" parent="1">
          <mxGeometry x="340" y="785" width="120" height="60" as="geometry" />
        </mxCell>
        <mxCell id="mmr0TZ-ZkrYY7pFSIxyF-31" value="корень равен listMerge(a, b, компаратор)" style="shape=process;whiteSpace=wrap;html=1;backgroundOutline=1;" vertex="1" parent="1">
          <mxGeometry x="340" y="860" width="120" height="60" as="geometry" />
        </mxCell>
        <mxCell id="mmr0TZ-ZkrYY7pFSIxyF-40" style="edgeStyle=orthogonalEdgeStyle;rounded=0;orthogonalLoop=1;jettySize=auto;html=1;entryX=0.5;entryY=0;entryDx=0;entryDy=0;endArrow=none;endFill=0;" edge="1" parent="1" source="mmr0TZ-ZkrYY7pFSIxyF-32" target="mmr0TZ-ZkrYY7pFSIxyF-28">
          <mxGeometry relative="1" as="geometry" />
        </mxCell>
        <mxCell id="mmr0TZ-ZkrYY7pFSIxyF-32" value="&lt;font style=&quot;font-size: 9px;&quot;&gt;ptr равен b&lt;br&gt;b равен указателю на ребёнка b&lt;br&gt;указатель ребёнка ptr равен 0&lt;/font&gt;" style="rounded=0;whiteSpace=wrap;html=1;align=left;" vertex="1" parent="1">
          <mxGeometry x="340" y="710" width="150" height="60" as="geometry" />
        </mxCell>
        <mxCell id="mmr0TZ-ZkrYY7pFSIxyF-33" value="да" style="text;html=1;strokeColor=none;fillColor=none;align=center;verticalAlign=middle;whiteSpace=wrap;rounded=0;" vertex="1" parent="1">
          <mxGeometry x="440" y="150" width="60" height="30" as="geometry" />
        </mxCell>
        <mxCell id="mmr0TZ-ZkrYY7pFSIxyF-34" value="да" style="text;html=1;strokeColor=none;fillColor=none;align=center;verticalAlign=middle;whiteSpace=wrap;rounded=0;" vertex="1" parent="1">
          <mxGeometry x="384" y="530" width="60" height="30" as="geometry" />
        </mxCell>
        <mxCell id="mmr0TZ-ZkrYY7pFSIxyF-35" value="нет" style="text;html=1;strokeColor=none;fillColor=none;align=center;verticalAlign=middle;whiteSpace=wrap;rounded=0;" vertex="1" parent="1">
          <mxGeometry x="390" y="200" width="60" height="30" as="geometry" />
        </mxCell>
        <mxCell id="mmr0TZ-ZkrYY7pFSIxyF-36" value="нет" style="text;html=1;strokeColor=none;fillColor=none;align=center;verticalAlign=middle;whiteSpace=wrap;rounded=0;" vertex="1" parent="1">
          <mxGeometry x="440" y="480" width="60" height="30" as="geometry" />
        </mxCell>
      </root>
    </mxGraphModel>
  </diagram>
</mxfile>
